<mxfile host="app.diagrams.net" agent="Mozilla/5.0 (Windows NT 10.0; Win64; x64) AppleWebKit/537.36 (KHTML, like Gecko) Chrome/134.0.0.0 Safari/537.36" version="26.1.1" pages="5">
  <diagram name="Pagina-1" id="mkYEMQbaUZWj56wwv8hJ">
    <mxGraphModel dx="1687" dy="903" grid="1" gridSize="10" guides="1" tooltips="1" connect="1" arrows="1" fold="1" page="1" pageScale="1" pageWidth="1169" pageHeight="827" math="0" shadow="0">
      <root>
        <mxCell id="0" />
        <mxCell id="1" parent="0" />
        <mxCell id="LwmSspgiIctnItmdlimy-36" value="" style="edgeStyle=orthogonalEdgeStyle;rounded=0;orthogonalLoop=1;jettySize=auto;html=1;" parent="1" source="LwmSspgiIctnItmdlimy-32" target="LwmSspgiIctnItmdlimy-35" edge="1">
          <mxGeometry relative="1" as="geometry" />
        </mxCell>
        <mxCell id="LwmSspgiIctnItmdlimy-54" value="" style="edgeStyle=orthogonalEdgeStyle;rounded=0;orthogonalLoop=1;jettySize=auto;html=1;startArrow=classic;startFill=0;endArrow=none;" parent="1" source="LwmSspgiIctnItmdlimy-32" target="LwmSspgiIctnItmdlimy-53" edge="1">
          <mxGeometry relative="1" as="geometry" />
        </mxCell>
        <mxCell id="LwmSspgiIctnItmdlimy-32" value="SELECT" style="text;html=1;align=center;verticalAlign=middle;whiteSpace=wrap;rounded=0;fontSize=20;fillColor=#f8cecc;strokeColor=#b85450;" parent="1" vertex="1">
          <mxGeometry x="260" y="160" width="160" height="60" as="geometry" />
        </mxCell>
        <mxCell id="LwmSspgiIctnItmdlimy-46" value="" style="edgeStyle=orthogonalEdgeStyle;rounded=0;orthogonalLoop=1;jettySize=auto;html=1;fillColor=#fff2cc;strokeColor=#d6b656;" parent="1" source="LwmSspgiIctnItmdlimy-33" target="LwmSspgiIctnItmdlimy-45" edge="1">
          <mxGeometry relative="1" as="geometry" />
        </mxCell>
        <mxCell id="LwmSspgiIctnItmdlimy-33" value="UPDATE" style="text;html=1;align=center;verticalAlign=middle;whiteSpace=wrap;rounded=0;fontSize=20;fillColor=#fff2cc;strokeColor=#d6b656;" parent="1" vertex="1">
          <mxGeometry x="450" y="160" width="160" height="60" as="geometry" />
        </mxCell>
        <mxCell id="LwmSspgiIctnItmdlimy-34" value="DELETE" style="text;html=1;align=center;verticalAlign=middle;whiteSpace=wrap;rounded=0;fontSize=20;fillColor=#dae8fc;strokeColor=#6c8ebf;" parent="1" vertex="1">
          <mxGeometry x="640" y="160" width="160" height="60" as="geometry" />
        </mxCell>
        <mxCell id="LwmSspgiIctnItmdlimy-38" value="" style="edgeStyle=orthogonalEdgeStyle;rounded=0;orthogonalLoop=1;jettySize=auto;html=1;" parent="1" source="LwmSspgiIctnItmdlimy-35" target="LwmSspgiIctnItmdlimy-37" edge="1">
          <mxGeometry relative="1" as="geometry" />
        </mxCell>
        <mxCell id="LwmSspgiIctnItmdlimy-35" value="FROM" style="text;html=1;align=center;verticalAlign=middle;whiteSpace=wrap;rounded=0;fontSize=20;fillColor=#f8cecc;strokeColor=#b85450;" parent="1" vertex="1">
          <mxGeometry x="260" y="270" width="160" height="60" as="geometry" />
        </mxCell>
        <mxCell id="LwmSspgiIctnItmdlimy-40" value="" style="edgeStyle=orthogonalEdgeStyle;rounded=0;orthogonalLoop=1;jettySize=auto;html=1;" parent="1" source="LwmSspgiIctnItmdlimy-37" target="LwmSspgiIctnItmdlimy-39" edge="1">
          <mxGeometry relative="1" as="geometry" />
        </mxCell>
        <mxCell id="LwmSspgiIctnItmdlimy-37" value="WHERE" style="text;html=1;align=center;verticalAlign=middle;whiteSpace=wrap;rounded=0;fontSize=20;fillColor=#f8cecc;strokeColor=#b85450;" parent="1" vertex="1">
          <mxGeometry x="260" y="400" width="160" height="60" as="geometry" />
        </mxCell>
        <mxCell id="LwmSspgiIctnItmdlimy-42" value="" style="edgeStyle=orthogonalEdgeStyle;rounded=0;orthogonalLoop=1;jettySize=auto;html=1;" parent="1" source="LwmSspgiIctnItmdlimy-39" target="LwmSspgiIctnItmdlimy-41" edge="1">
          <mxGeometry relative="1" as="geometry" />
        </mxCell>
        <mxCell id="LwmSspgiIctnItmdlimy-39" value="GROUP BY" style="text;html=1;align=center;verticalAlign=middle;whiteSpace=wrap;rounded=0;fontSize=20;fillColor=#f8cecc;strokeColor=#b85450;" parent="1" vertex="1">
          <mxGeometry x="260" y="490" width="160" height="60" as="geometry" />
        </mxCell>
        <mxCell id="LwmSspgiIctnItmdlimy-44" value="" style="edgeStyle=orthogonalEdgeStyle;rounded=0;orthogonalLoop=1;jettySize=auto;html=1;" parent="1" source="LwmSspgiIctnItmdlimy-41" target="LwmSspgiIctnItmdlimy-43" edge="1">
          <mxGeometry relative="1" as="geometry" />
        </mxCell>
        <mxCell id="LwmSspgiIctnItmdlimy-41" value="ORDER BY" style="text;html=1;align=center;verticalAlign=middle;whiteSpace=wrap;rounded=0;fontSize=20;fillColor=#f8cecc;strokeColor=#b85450;" parent="1" vertex="1">
          <mxGeometry x="260" y="660" width="160" height="60" as="geometry" />
        </mxCell>
        <mxCell id="LwmSspgiIctnItmdlimy-43" value="LIMIT" style="text;html=1;align=center;verticalAlign=middle;whiteSpace=wrap;rounded=0;fontSize=20;fillColor=#f8cecc;strokeColor=#b85450;" parent="1" vertex="1">
          <mxGeometry x="260" y="750" width="160" height="60" as="geometry" />
        </mxCell>
        <mxCell id="LwmSspgiIctnItmdlimy-48" value="" style="edgeStyle=orthogonalEdgeStyle;rounded=0;orthogonalLoop=1;jettySize=auto;html=1;fillColor=#fff2cc;strokeColor=#d6b656;" parent="1" source="LwmSspgiIctnItmdlimy-45" target="LwmSspgiIctnItmdlimy-47" edge="1">
          <mxGeometry relative="1" as="geometry" />
        </mxCell>
        <mxCell id="LwmSspgiIctnItmdlimy-45" value="SET" style="text;html=1;align=center;verticalAlign=middle;whiteSpace=wrap;rounded=0;fontSize=20;fillColor=#fff2cc;strokeColor=#d6b656;" parent="1" vertex="1">
          <mxGeometry x="450" y="270" width="160" height="60" as="geometry" />
        </mxCell>
        <mxCell id="LwmSspgiIctnItmdlimy-47" value="WHERE" style="text;html=1;align=center;verticalAlign=middle;whiteSpace=wrap;rounded=0;fontSize=20;fillColor=#fff2cc;strokeColor=#d6b656;" parent="1" vertex="1">
          <mxGeometry x="450" y="400" width="160" height="60" as="geometry" />
        </mxCell>
        <mxCell id="LwmSspgiIctnItmdlimy-49" value="" style="edgeStyle=orthogonalEdgeStyle;rounded=0;orthogonalLoop=1;jettySize=auto;html=1;fillColor=#dae8fc;strokeColor=#6c8ebf;" parent="1" target="LwmSspgiIctnItmdlimy-51" edge="1">
          <mxGeometry relative="1" as="geometry">
            <mxPoint x="720" y="220" as="sourcePoint" />
          </mxGeometry>
        </mxCell>
        <mxCell id="LwmSspgiIctnItmdlimy-50" value="" style="edgeStyle=orthogonalEdgeStyle;rounded=0;orthogonalLoop=1;jettySize=auto;html=1;fillColor=#dae8fc;strokeColor=#6c8ebf;" parent="1" source="LwmSspgiIctnItmdlimy-51" target="LwmSspgiIctnItmdlimy-52" edge="1">
          <mxGeometry relative="1" as="geometry" />
        </mxCell>
        <mxCell id="LwmSspgiIctnItmdlimy-51" value="FROM" style="text;html=1;align=center;verticalAlign=middle;whiteSpace=wrap;rounded=0;fontSize=20;fillColor=#dae8fc;strokeColor=#6c8ebf;" parent="1" vertex="1">
          <mxGeometry x="640" y="270" width="160" height="60" as="geometry" />
        </mxCell>
        <mxCell id="LwmSspgiIctnItmdlimy-52" value="WHERE" style="text;html=1;align=center;verticalAlign=middle;whiteSpace=wrap;rounded=0;fontSize=20;fillColor=#dae8fc;strokeColor=#6c8ebf;" parent="1" vertex="1">
          <mxGeometry x="640" y="400" width="160" height="60" as="geometry" />
        </mxCell>
        <mxCell id="LwmSspgiIctnItmdlimy-53" value="INSERT" style="text;html=1;align=center;verticalAlign=middle;whiteSpace=wrap;rounded=0;fontSize=20;fillColor=#f8cecc;strokeColor=#b85450;" parent="1" vertex="1">
          <mxGeometry x="40" y="160" width="160" height="60" as="geometry" />
        </mxCell>
        <mxCell id="LwmSspgiIctnItmdlimy-56" value="" style="edgeStyle=orthogonalEdgeStyle;rounded=0;orthogonalLoop=1;jettySize=auto;html=1;" parent="1" source="LwmSspgiIctnItmdlimy-55" target="LwmSspgiIctnItmdlimy-53" edge="1">
          <mxGeometry relative="1" as="geometry" />
        </mxCell>
        <mxCell id="LwmSspgiIctnItmdlimy-57" style="edgeStyle=orthogonalEdgeStyle;rounded=0;orthogonalLoop=1;jettySize=auto;html=1;exitX=1;exitY=0.5;exitDx=0;exitDy=0;entryX=0.5;entryY=0;entryDx=0;entryDy=0;" parent="1" source="LwmSspgiIctnItmdlimy-55" target="LwmSspgiIctnItmdlimy-32" edge="1">
          <mxGeometry relative="1" as="geometry" />
        </mxCell>
        <mxCell id="LwmSspgiIctnItmdlimy-58" value="AS" style="edgeLabel;html=1;align=center;verticalAlign=middle;resizable=0;points=[];" parent="LwmSspgiIctnItmdlimy-57" vertex="1" connectable="0">
          <mxGeometry x="-0.3848" y="-2" relative="1" as="geometry">
            <mxPoint x="-1" y="1" as="offset" />
          </mxGeometry>
        </mxCell>
        <mxCell id="LwmSspgiIctnItmdlimy-55" value="CREATE" style="text;html=1;align=center;verticalAlign=middle;whiteSpace=wrap;rounded=0;fontSize=20;fillColor=#d5e8d4;strokeColor=#82b366;" parent="1" vertex="1">
          <mxGeometry x="40" y="40" width="160" height="60" as="geometry" />
        </mxCell>
        <mxCell id="LwmSspgiIctnItmdlimy-59" value="HAVING" style="text;html=1;align=center;verticalAlign=middle;whiteSpace=wrap;rounded=0;fontSize=20;fillColor=#f8cecc;strokeColor=#b85450;" parent="1" vertex="1">
          <mxGeometry x="260" y="580" width="160" height="60" as="geometry" />
        </mxCell>
      </root>
    </mxGraphModel>
  </diagram>
  <diagram id="vHxZi1q8Pd_yhE6FfRzN" name="libreria">
    <mxGraphModel dx="1163" dy="623" grid="1" gridSize="10" guides="1" tooltips="1" connect="1" arrows="1" fold="1" page="1" pageScale="1" pageWidth="1169" pageHeight="827" math="0" shadow="0">
      <root>
        <mxCell id="0" />
        <mxCell id="1" parent="0" />
        <mxCell id="D_m84uzjzg8dMNQfhoMg-1" value="CREATE TABLE `autore` (&#xa;  `id` int NOT NULL AUTO_INCREMENT,&#xa;  `nome` varchar(30) DEFAULT NULL,&#xa;  `cognome` varchar(50) DEFAULT NULL,&#xa;  `nazionalita` char(2) DEFAULT NULL,&#xa;  PRIMARY KEY (`id`)&#xa;)" style="text;whiteSpace=wrap;" vertex="1" parent="1">
          <mxGeometry x="80" y="75" width="270" height="120" as="geometry" />
        </mxCell>
        <mxCell id="D_m84uzjzg8dMNQfhoMg-2" value="autore" style="shape=table;startSize=30;container=1;collapsible=1;childLayout=tableLayout;fixedRows=1;rowLines=0;fontStyle=1;align=center;resizeLast=1;html=1;" vertex="1" parent="1">
          <mxGeometry x="430" y="45" width="180" height="150" as="geometry" />
        </mxCell>
        <mxCell id="D_m84uzjzg8dMNQfhoMg-3" value="" style="shape=tableRow;horizontal=0;startSize=0;swimlaneHead=0;swimlaneBody=0;fillColor=none;collapsible=0;dropTarget=0;points=[[0,0.5],[1,0.5]];portConstraint=eastwest;top=0;left=0;right=0;bottom=1;" vertex="1" parent="D_m84uzjzg8dMNQfhoMg-2">
          <mxGeometry y="30" width="180" height="30" as="geometry" />
        </mxCell>
        <mxCell id="D_m84uzjzg8dMNQfhoMg-4" value="PK" style="shape=partialRectangle;connectable=0;fillColor=none;top=0;left=0;bottom=0;right=0;fontStyle=1;overflow=hidden;whiteSpace=wrap;html=1;" vertex="1" parent="D_m84uzjzg8dMNQfhoMg-3">
          <mxGeometry width="30" height="30" as="geometry">
            <mxRectangle width="30" height="30" as="alternateBounds" />
          </mxGeometry>
        </mxCell>
        <mxCell id="D_m84uzjzg8dMNQfhoMg-5" value="id" style="shape=partialRectangle;connectable=0;fillColor=none;top=0;left=0;bottom=0;right=0;align=left;spacingLeft=6;fontStyle=5;overflow=hidden;whiteSpace=wrap;html=1;" vertex="1" parent="D_m84uzjzg8dMNQfhoMg-3">
          <mxGeometry x="30" width="150" height="30" as="geometry">
            <mxRectangle width="150" height="30" as="alternateBounds" />
          </mxGeometry>
        </mxCell>
        <mxCell id="D_m84uzjzg8dMNQfhoMg-6" value="" style="shape=tableRow;horizontal=0;startSize=0;swimlaneHead=0;swimlaneBody=0;fillColor=none;collapsible=0;dropTarget=0;points=[[0,0.5],[1,0.5]];portConstraint=eastwest;top=0;left=0;right=0;bottom=0;" vertex="1" parent="D_m84uzjzg8dMNQfhoMg-2">
          <mxGeometry y="60" width="180" height="30" as="geometry" />
        </mxCell>
        <mxCell id="D_m84uzjzg8dMNQfhoMg-7" value="" style="shape=partialRectangle;connectable=0;fillColor=none;top=0;left=0;bottom=0;right=0;editable=1;overflow=hidden;whiteSpace=wrap;html=1;" vertex="1" parent="D_m84uzjzg8dMNQfhoMg-6">
          <mxGeometry width="30" height="30" as="geometry">
            <mxRectangle width="30" height="30" as="alternateBounds" />
          </mxGeometry>
        </mxCell>
        <mxCell id="D_m84uzjzg8dMNQfhoMg-8" value="nome: varchar(30)" style="shape=partialRectangle;connectable=0;fillColor=none;top=0;left=0;bottom=0;right=0;align=left;spacingLeft=6;overflow=hidden;whiteSpace=wrap;html=1;" vertex="1" parent="D_m84uzjzg8dMNQfhoMg-6">
          <mxGeometry x="30" width="150" height="30" as="geometry">
            <mxRectangle width="150" height="30" as="alternateBounds" />
          </mxGeometry>
        </mxCell>
        <mxCell id="D_m84uzjzg8dMNQfhoMg-9" value="" style="shape=tableRow;horizontal=0;startSize=0;swimlaneHead=0;swimlaneBody=0;fillColor=none;collapsible=0;dropTarget=0;points=[[0,0.5],[1,0.5]];portConstraint=eastwest;top=0;left=0;right=0;bottom=0;" vertex="1" parent="D_m84uzjzg8dMNQfhoMg-2">
          <mxGeometry y="90" width="180" height="30" as="geometry" />
        </mxCell>
        <mxCell id="D_m84uzjzg8dMNQfhoMg-10" value="" style="shape=partialRectangle;connectable=0;fillColor=none;top=0;left=0;bottom=0;right=0;editable=1;overflow=hidden;whiteSpace=wrap;html=1;" vertex="1" parent="D_m84uzjzg8dMNQfhoMg-9">
          <mxGeometry width="30" height="30" as="geometry">
            <mxRectangle width="30" height="30" as="alternateBounds" />
          </mxGeometry>
        </mxCell>
        <mxCell id="D_m84uzjzg8dMNQfhoMg-11" value="cognome: varchar(50)" style="shape=partialRectangle;connectable=0;fillColor=none;top=0;left=0;bottom=0;right=0;align=left;spacingLeft=6;overflow=hidden;whiteSpace=wrap;html=1;" vertex="1" parent="D_m84uzjzg8dMNQfhoMg-9">
          <mxGeometry x="30" width="150" height="30" as="geometry">
            <mxRectangle width="150" height="30" as="alternateBounds" />
          </mxGeometry>
        </mxCell>
        <mxCell id="D_m84uzjzg8dMNQfhoMg-12" value="" style="shape=tableRow;horizontal=0;startSize=0;swimlaneHead=0;swimlaneBody=0;fillColor=none;collapsible=0;dropTarget=0;points=[[0,0.5],[1,0.5]];portConstraint=eastwest;top=0;left=0;right=0;bottom=0;" vertex="1" parent="D_m84uzjzg8dMNQfhoMg-2">
          <mxGeometry y="120" width="180" height="30" as="geometry" />
        </mxCell>
        <mxCell id="D_m84uzjzg8dMNQfhoMg-13" value="" style="shape=partialRectangle;connectable=0;fillColor=none;top=0;left=0;bottom=0;right=0;editable=1;overflow=hidden;whiteSpace=wrap;html=1;" vertex="1" parent="D_m84uzjzg8dMNQfhoMg-12">
          <mxGeometry width="30" height="30" as="geometry">
            <mxRectangle width="30" height="30" as="alternateBounds" />
          </mxGeometry>
        </mxCell>
        <mxCell id="D_m84uzjzg8dMNQfhoMg-14" value="nazionalita: char(2)" style="shape=partialRectangle;connectable=0;fillColor=none;top=0;left=0;bottom=0;right=0;align=left;spacingLeft=6;overflow=hidden;whiteSpace=wrap;html=1;" vertex="1" parent="D_m84uzjzg8dMNQfhoMg-12">
          <mxGeometry x="30" width="150" height="30" as="geometry">
            <mxRectangle width="150" height="30" as="alternateBounds" />
          </mxGeometry>
        </mxCell>
        <mxCell id="D_m84uzjzg8dMNQfhoMg-15" value="CREATE TABLE `libro` (&#xa;  `id` int NOT NULL AUTO_INCREMENT,&#xa;  `titolo` varchar(100) DEFAULT NULL,&#xa;  `prezzo` decimal(6,2) DEFAULT NULL,&#xa;  `pagine` smallint DEFAULT NULL,&#xa;  `editore_id` int DEFAULT NULL,&#xa;  PRIMARY KEY (`id`)&#xa;)" style="text;whiteSpace=wrap;" vertex="1" parent="1">
          <mxGeometry x="80" y="300" width="250" height="140" as="geometry" />
        </mxCell>
        <mxCell id="D_m84uzjzg8dMNQfhoMg-16" value="libro" style="shape=table;startSize=30;container=1;collapsible=1;childLayout=tableLayout;fixedRows=1;rowLines=0;fontStyle=1;align=center;resizeLast=1;html=1;" vertex="1" parent="1">
          <mxGeometry x="430" y="280" width="180" height="180" as="geometry" />
        </mxCell>
        <mxCell id="D_m84uzjzg8dMNQfhoMg-17" value="" style="shape=tableRow;horizontal=0;startSize=0;swimlaneHead=0;swimlaneBody=0;fillColor=none;collapsible=0;dropTarget=0;points=[[0,0.5],[1,0.5]];portConstraint=eastwest;top=0;left=0;right=0;bottom=1;" vertex="1" parent="D_m84uzjzg8dMNQfhoMg-16">
          <mxGeometry y="30" width="180" height="30" as="geometry" />
        </mxCell>
        <mxCell id="D_m84uzjzg8dMNQfhoMg-18" value="PK" style="shape=partialRectangle;connectable=0;fillColor=none;top=0;left=0;bottom=0;right=0;fontStyle=1;overflow=hidden;whiteSpace=wrap;html=1;" vertex="1" parent="D_m84uzjzg8dMNQfhoMg-17">
          <mxGeometry width="30" height="30" as="geometry">
            <mxRectangle width="30" height="30" as="alternateBounds" />
          </mxGeometry>
        </mxCell>
        <mxCell id="D_m84uzjzg8dMNQfhoMg-19" value="id" style="shape=partialRectangle;connectable=0;fillColor=none;top=0;left=0;bottom=0;right=0;align=left;spacingLeft=6;fontStyle=5;overflow=hidden;whiteSpace=wrap;html=1;" vertex="1" parent="D_m84uzjzg8dMNQfhoMg-17">
          <mxGeometry x="30" width="150" height="30" as="geometry">
            <mxRectangle width="150" height="30" as="alternateBounds" />
          </mxGeometry>
        </mxCell>
        <mxCell id="D_m84uzjzg8dMNQfhoMg-20" value="" style="shape=tableRow;horizontal=0;startSize=0;swimlaneHead=0;swimlaneBody=0;fillColor=none;collapsible=0;dropTarget=0;points=[[0,0.5],[1,0.5]];portConstraint=eastwest;top=0;left=0;right=0;bottom=0;" vertex="1" parent="D_m84uzjzg8dMNQfhoMg-16">
          <mxGeometry y="60" width="180" height="30" as="geometry" />
        </mxCell>
        <mxCell id="D_m84uzjzg8dMNQfhoMg-21" value="" style="shape=partialRectangle;connectable=0;fillColor=none;top=0;left=0;bottom=0;right=0;editable=1;overflow=hidden;whiteSpace=wrap;html=1;" vertex="1" parent="D_m84uzjzg8dMNQfhoMg-20">
          <mxGeometry width="30" height="30" as="geometry">
            <mxRectangle width="30" height="30" as="alternateBounds" />
          </mxGeometry>
        </mxCell>
        <mxCell id="D_m84uzjzg8dMNQfhoMg-22" value="titolo: varchar(100)" style="shape=partialRectangle;connectable=0;fillColor=none;top=0;left=0;bottom=0;right=0;align=left;spacingLeft=6;overflow=hidden;whiteSpace=wrap;html=1;" vertex="1" parent="D_m84uzjzg8dMNQfhoMg-20">
          <mxGeometry x="30" width="150" height="30" as="geometry">
            <mxRectangle width="150" height="30" as="alternateBounds" />
          </mxGeometry>
        </mxCell>
        <mxCell id="D_m84uzjzg8dMNQfhoMg-23" value="" style="shape=tableRow;horizontal=0;startSize=0;swimlaneHead=0;swimlaneBody=0;fillColor=none;collapsible=0;dropTarget=0;points=[[0,0.5],[1,0.5]];portConstraint=eastwest;top=0;left=0;right=0;bottom=0;" vertex="1" parent="D_m84uzjzg8dMNQfhoMg-16">
          <mxGeometry y="90" width="180" height="30" as="geometry" />
        </mxCell>
        <mxCell id="D_m84uzjzg8dMNQfhoMg-24" value="" style="shape=partialRectangle;connectable=0;fillColor=none;top=0;left=0;bottom=0;right=0;editable=1;overflow=hidden;whiteSpace=wrap;html=1;" vertex="1" parent="D_m84uzjzg8dMNQfhoMg-23">
          <mxGeometry width="30" height="30" as="geometry">
            <mxRectangle width="30" height="30" as="alternateBounds" />
          </mxGeometry>
        </mxCell>
        <mxCell id="D_m84uzjzg8dMNQfhoMg-25" value="prezzo: decimal(6,2)" style="shape=partialRectangle;connectable=0;fillColor=none;top=0;left=0;bottom=0;right=0;align=left;spacingLeft=6;overflow=hidden;whiteSpace=wrap;html=1;" vertex="1" parent="D_m84uzjzg8dMNQfhoMg-23">
          <mxGeometry x="30" width="150" height="30" as="geometry">
            <mxRectangle width="150" height="30" as="alternateBounds" />
          </mxGeometry>
        </mxCell>
        <mxCell id="D_m84uzjzg8dMNQfhoMg-26" value="" style="shape=tableRow;horizontal=0;startSize=0;swimlaneHead=0;swimlaneBody=0;fillColor=none;collapsible=0;dropTarget=0;points=[[0,0.5],[1,0.5]];portConstraint=eastwest;top=0;left=0;right=0;bottom=0;" vertex="1" parent="D_m84uzjzg8dMNQfhoMg-16">
          <mxGeometry y="120" width="180" height="30" as="geometry" />
        </mxCell>
        <mxCell id="D_m84uzjzg8dMNQfhoMg-27" value="" style="shape=partialRectangle;connectable=0;fillColor=none;top=0;left=0;bottom=0;right=0;editable=1;overflow=hidden;whiteSpace=wrap;html=1;" vertex="1" parent="D_m84uzjzg8dMNQfhoMg-26">
          <mxGeometry width="30" height="30" as="geometry">
            <mxRectangle width="30" height="30" as="alternateBounds" />
          </mxGeometry>
        </mxCell>
        <mxCell id="D_m84uzjzg8dMNQfhoMg-28" value="pagine: smallint" style="shape=partialRectangle;connectable=0;fillColor=none;top=0;left=0;bottom=0;right=0;align=left;spacingLeft=6;overflow=hidden;whiteSpace=wrap;html=1;" vertex="1" parent="D_m84uzjzg8dMNQfhoMg-26">
          <mxGeometry x="30" width="150" height="30" as="geometry">
            <mxRectangle width="150" height="30" as="alternateBounds" />
          </mxGeometry>
        </mxCell>
        <mxCell id="D_m84uzjzg8dMNQfhoMg-29" value="" style="shape=tableRow;horizontal=0;startSize=0;swimlaneHead=0;swimlaneBody=0;fillColor=none;collapsible=0;dropTarget=0;points=[[0,0.5],[1,0.5]];portConstraint=eastwest;top=0;left=0;right=0;bottom=0;" vertex="1" parent="D_m84uzjzg8dMNQfhoMg-16">
          <mxGeometry y="150" width="180" height="30" as="geometry" />
        </mxCell>
        <mxCell id="D_m84uzjzg8dMNQfhoMg-30" value="FK" style="shape=partialRectangle;connectable=0;fillColor=none;top=0;left=0;bottom=0;right=0;editable=1;overflow=hidden;whiteSpace=wrap;html=1;" vertex="1" parent="D_m84uzjzg8dMNQfhoMg-29">
          <mxGeometry width="30" height="30" as="geometry">
            <mxRectangle width="30" height="30" as="alternateBounds" />
          </mxGeometry>
        </mxCell>
        <mxCell id="D_m84uzjzg8dMNQfhoMg-31" value="editore_id: int" style="shape=partialRectangle;connectable=0;fillColor=none;top=0;left=0;bottom=0;right=0;align=left;spacingLeft=6;overflow=hidden;whiteSpace=wrap;html=1;" vertex="1" parent="D_m84uzjzg8dMNQfhoMg-29">
          <mxGeometry x="30" width="150" height="30" as="geometry">
            <mxRectangle width="150" height="30" as="alternateBounds" />
          </mxGeometry>
        </mxCell>
        <mxCell id="D_m84uzjzg8dMNQfhoMg-32" value="CREATE TABLE `editore` (&#xa;  `id` int NOT NULL AUTO_INCREMENT,&#xa;  `nome` varchar(30) DEFAULT NULL,&#xa;  `contatto` varchar(50) DEFAULT NULL,&#xa;  PRIMARY KEY (`id`),&#xa;  UNIQUE KEY `contatto` (`contatto`)&#xa;)" style="text;whiteSpace=wrap;" vertex="1" parent="1">
          <mxGeometry x="900" y="294" width="250" height="120" as="geometry" />
        </mxCell>
        <mxCell id="D_m84uzjzg8dMNQfhoMg-33" value="editore" style="shape=table;startSize=30;container=1;collapsible=1;childLayout=tableLayout;fixedRows=1;rowLines=0;fontStyle=1;align=center;resizeLast=1;html=1;" vertex="1" parent="1">
          <mxGeometry x="700" y="320" width="180" height="120" as="geometry" />
        </mxCell>
        <mxCell id="D_m84uzjzg8dMNQfhoMg-34" value="" style="shape=tableRow;horizontal=0;startSize=0;swimlaneHead=0;swimlaneBody=0;fillColor=none;collapsible=0;dropTarget=0;points=[[0,0.5],[1,0.5]];portConstraint=eastwest;top=0;left=0;right=0;bottom=1;" vertex="1" parent="D_m84uzjzg8dMNQfhoMg-33">
          <mxGeometry y="30" width="180" height="30" as="geometry" />
        </mxCell>
        <mxCell id="D_m84uzjzg8dMNQfhoMg-35" value="PK" style="shape=partialRectangle;connectable=0;fillColor=none;top=0;left=0;bottom=0;right=0;fontStyle=1;overflow=hidden;whiteSpace=wrap;html=1;" vertex="1" parent="D_m84uzjzg8dMNQfhoMg-34">
          <mxGeometry width="30" height="30" as="geometry">
            <mxRectangle width="30" height="30" as="alternateBounds" />
          </mxGeometry>
        </mxCell>
        <mxCell id="D_m84uzjzg8dMNQfhoMg-36" value="id" style="shape=partialRectangle;connectable=0;fillColor=none;top=0;left=0;bottom=0;right=0;align=left;spacingLeft=6;fontStyle=5;overflow=hidden;whiteSpace=wrap;html=1;" vertex="1" parent="D_m84uzjzg8dMNQfhoMg-34">
          <mxGeometry x="30" width="150" height="30" as="geometry">
            <mxRectangle width="150" height="30" as="alternateBounds" />
          </mxGeometry>
        </mxCell>
        <mxCell id="D_m84uzjzg8dMNQfhoMg-37" value="" style="shape=tableRow;horizontal=0;startSize=0;swimlaneHead=0;swimlaneBody=0;fillColor=none;collapsible=0;dropTarget=0;points=[[0,0.5],[1,0.5]];portConstraint=eastwest;top=0;left=0;right=0;bottom=0;" vertex="1" parent="D_m84uzjzg8dMNQfhoMg-33">
          <mxGeometry y="60" width="180" height="30" as="geometry" />
        </mxCell>
        <mxCell id="D_m84uzjzg8dMNQfhoMg-38" value="" style="shape=partialRectangle;connectable=0;fillColor=none;top=0;left=0;bottom=0;right=0;editable=1;overflow=hidden;whiteSpace=wrap;html=1;" vertex="1" parent="D_m84uzjzg8dMNQfhoMg-37">
          <mxGeometry width="30" height="30" as="geometry">
            <mxRectangle width="30" height="30" as="alternateBounds" />
          </mxGeometry>
        </mxCell>
        <mxCell id="D_m84uzjzg8dMNQfhoMg-39" value="nome: varchar(30)" style="shape=partialRectangle;connectable=0;fillColor=none;top=0;left=0;bottom=0;right=0;align=left;spacingLeft=6;overflow=hidden;whiteSpace=wrap;html=1;" vertex="1" parent="D_m84uzjzg8dMNQfhoMg-37">
          <mxGeometry x="30" width="150" height="30" as="geometry">
            <mxRectangle width="150" height="30" as="alternateBounds" />
          </mxGeometry>
        </mxCell>
        <mxCell id="D_m84uzjzg8dMNQfhoMg-40" value="" style="shape=tableRow;horizontal=0;startSize=0;swimlaneHead=0;swimlaneBody=0;fillColor=none;collapsible=0;dropTarget=0;points=[[0,0.5],[1,0.5]];portConstraint=eastwest;top=0;left=0;right=0;bottom=0;" vertex="1" parent="D_m84uzjzg8dMNQfhoMg-33">
          <mxGeometry y="90" width="180" height="30" as="geometry" />
        </mxCell>
        <mxCell id="D_m84uzjzg8dMNQfhoMg-41" value="" style="shape=partialRectangle;connectable=0;fillColor=none;top=0;left=0;bottom=0;right=0;editable=1;overflow=hidden;whiteSpace=wrap;html=1;" vertex="1" parent="D_m84uzjzg8dMNQfhoMg-40">
          <mxGeometry width="30" height="30" as="geometry">
            <mxRectangle width="30" height="30" as="alternateBounds" />
          </mxGeometry>
        </mxCell>
        <mxCell id="D_m84uzjzg8dMNQfhoMg-42" value="contatto: varchar(50)" style="shape=partialRectangle;connectable=0;fillColor=none;top=0;left=0;bottom=0;right=0;align=left;spacingLeft=6;overflow=hidden;whiteSpace=wrap;html=1;" vertex="1" parent="D_m84uzjzg8dMNQfhoMg-40">
          <mxGeometry x="30" width="150" height="30" as="geometry">
            <mxRectangle width="150" height="30" as="alternateBounds" />
          </mxGeometry>
        </mxCell>
        <mxCell id="D_m84uzjzg8dMNQfhoMg-47" value="" style="endArrow=ERmandOne;html=1;rounded=0;entryX=0;entryY=0.5;entryDx=0;entryDy=0;exitX=1;exitY=0.5;exitDx=0;exitDy=0;startArrow=ERmany;startFill=0;endFill=0;" edge="1" parent="1" source="D_m84uzjzg8dMNQfhoMg-29" target="D_m84uzjzg8dMNQfhoMg-34">
          <mxGeometry relative="1" as="geometry">
            <mxPoint x="530" y="350" as="sourcePoint" />
            <mxPoint x="690" y="350" as="targetPoint" />
          </mxGeometry>
        </mxCell>
        <mxCell id="D_m84uzjzg8dMNQfhoMg-48" value="1" style="resizable=0;html=1;whiteSpace=wrap;align=right;verticalAlign=bottom;" connectable="0" vertex="1" parent="D_m84uzjzg8dMNQfhoMg-47">
          <mxGeometry x="1" relative="1" as="geometry" />
        </mxCell>
        <mxCell id="D_m84uzjzg8dMNQfhoMg-49" value="0...*" style="resizable=0;html=1;whiteSpace=wrap;align=right;verticalAlign=bottom;" connectable="0" vertex="1" parent="D_m84uzjzg8dMNQfhoMg-47">
          <mxGeometry x="1" relative="1" as="geometry">
            <mxPoint x="-64" y="81" as="offset" />
          </mxGeometry>
        </mxCell>
        <mxCell id="D_m84uzjzg8dMNQfhoMg-50" value="CREATE TABLE `autore_libro` (&#xa;  `libro_id` int NOT NULL,&#xa;  `autore_id` int NOT NULL,&#xa;  PRIMARY KEY (`libro_id`,`autore_id`)&#xa;)" style="text;whiteSpace=wrap;" vertex="1" parent="1">
          <mxGeometry x="900" y="95" width="240" height="100" as="geometry" />
        </mxCell>
        <mxCell id="D_m84uzjzg8dMNQfhoMg-51" value="&lt;span style=&quot;text-align: left; text-wrap-mode: wrap;&quot;&gt;autore_libro&lt;/span&gt;" style="shape=table;startSize=30;container=1;collapsible=1;childLayout=tableLayout;fixedRows=1;rowLines=0;fontStyle=1;align=center;resizeLast=1;html=1;" vertex="1" parent="1">
          <mxGeometry x="690" y="90" width="180" height="90" as="geometry" />
        </mxCell>
        <mxCell id="D_m84uzjzg8dMNQfhoMg-55" value="" style="shape=tableRow;horizontal=0;startSize=0;swimlaneHead=0;swimlaneBody=0;fillColor=none;collapsible=0;dropTarget=0;points=[[0,0.5],[1,0.5]];portConstraint=eastwest;top=0;left=0;right=0;bottom=0;" vertex="1" parent="D_m84uzjzg8dMNQfhoMg-51">
          <mxGeometry y="30" width="180" height="30" as="geometry" />
        </mxCell>
        <mxCell id="D_m84uzjzg8dMNQfhoMg-56" value="PK,FK" style="shape=partialRectangle;connectable=0;fillColor=none;top=0;left=0;bottom=0;right=0;editable=1;overflow=hidden;whiteSpace=wrap;html=1;" vertex="1" parent="D_m84uzjzg8dMNQfhoMg-55">
          <mxGeometry width="40.00000000000023" height="30" as="geometry">
            <mxRectangle width="40.00000000000023" height="30" as="alternateBounds" />
          </mxGeometry>
        </mxCell>
        <mxCell id="D_m84uzjzg8dMNQfhoMg-57" value="autore_id" style="shape=partialRectangle;connectable=0;fillColor=none;top=0;left=0;bottom=0;right=0;align=left;spacingLeft=6;overflow=hidden;whiteSpace=wrap;html=1;" vertex="1" parent="D_m84uzjzg8dMNQfhoMg-55">
          <mxGeometry x="40.00000000000023" width="139.99999999999977" height="30" as="geometry">
            <mxRectangle width="139.99999999999977" height="30" as="alternateBounds" />
          </mxGeometry>
        </mxCell>
        <mxCell id="D_m84uzjzg8dMNQfhoMg-58" value="" style="shape=tableRow;horizontal=0;startSize=0;swimlaneHead=0;swimlaneBody=0;fillColor=none;collapsible=0;dropTarget=0;points=[[0,0.5],[1,0.5]];portConstraint=eastwest;top=0;left=0;right=0;bottom=0;" vertex="1" parent="D_m84uzjzg8dMNQfhoMg-51">
          <mxGeometry y="60" width="180" height="30" as="geometry" />
        </mxCell>
        <mxCell id="D_m84uzjzg8dMNQfhoMg-59" value="PK,FK" style="shape=partialRectangle;connectable=0;fillColor=none;top=0;left=0;bottom=0;right=0;editable=1;overflow=hidden;whiteSpace=wrap;html=1;" vertex="1" parent="D_m84uzjzg8dMNQfhoMg-58">
          <mxGeometry width="40.00000000000023" height="30" as="geometry">
            <mxRectangle width="40.00000000000023" height="30" as="alternateBounds" />
          </mxGeometry>
        </mxCell>
        <mxCell id="D_m84uzjzg8dMNQfhoMg-60" value="libro_id" style="shape=partialRectangle;connectable=0;fillColor=none;top=0;left=0;bottom=0;right=0;align=left;spacingLeft=6;overflow=hidden;whiteSpace=wrap;html=1;" vertex="1" parent="D_m84uzjzg8dMNQfhoMg-58">
          <mxGeometry x="40.00000000000023" width="139.99999999999977" height="30" as="geometry">
            <mxRectangle width="139.99999999999977" height="30" as="alternateBounds" />
          </mxGeometry>
        </mxCell>
        <mxCell id="D_m84uzjzg8dMNQfhoMg-67" style="edgeStyle=orthogonalEdgeStyle;rounded=0;orthogonalLoop=1;jettySize=auto;html=1;exitX=0;exitY=0.5;exitDx=0;exitDy=0;endArrow=ERmandOne;endFill=0;startArrow=ERmandOne;startFill=0;" edge="1" parent="1" source="D_m84uzjzg8dMNQfhoMg-55" target="D_m84uzjzg8dMNQfhoMg-3">
          <mxGeometry relative="1" as="geometry" />
        </mxCell>
        <mxCell id="D_m84uzjzg8dMNQfhoMg-68" style="edgeStyle=orthogonalEdgeStyle;rounded=0;orthogonalLoop=1;jettySize=auto;html=1;exitX=0;exitY=0.5;exitDx=0;exitDy=0;entryX=1;entryY=0.5;entryDx=0;entryDy=0;endArrow=ERmandOne;endFill=0;startArrow=ERmandOne;startFill=0;" edge="1" parent="1" source="D_m84uzjzg8dMNQfhoMg-58" target="D_m84uzjzg8dMNQfhoMg-17">
          <mxGeometry relative="1" as="geometry" />
        </mxCell>
      </root>
    </mxGraphModel>
  </diagram>
  <diagram id="CqZVOvXb6ua2aGNHYLCc" name="Pagina-3">
    <mxGraphModel dx="1430" dy="781" grid="1" gridSize="10" guides="1" tooltips="1" connect="1" arrows="1" fold="1" page="1" pageScale="1" pageWidth="1169" pageHeight="827" math="0" shadow="0">
      <root>
        <mxCell id="0" />
        <mxCell id="1" parent="0" />
        <mxCell id="bO_7eVXcaJlFEk5sCp_2-3" value="" style="strokeWidth=1;shadow=0;dashed=0;align=center;html=1;shape=mxgraph.mockup.containers.browserWindow;rSize=0;strokeColor=#666666;strokeColor2=#008cff;strokeColor3=#c4c4c4;mainText=,;recursiveResize=0;" vertex="1" parent="1">
          <mxGeometry x="60" y="30" width="1030" height="640" as="geometry" />
        </mxCell>
        <mxCell id="bO_7eVXcaJlFEk5sCp_2-4" value="Page 1" style="strokeWidth=1;shadow=0;dashed=0;align=center;html=1;shape=mxgraph.mockup.containers.anchor;fontSize=17;fontColor=#666666;align=left;whiteSpace=wrap;" vertex="1" parent="bO_7eVXcaJlFEk5sCp_2-3">
          <mxGeometry x="60" y="12" width="110" height="26" as="geometry" />
        </mxCell>
        <mxCell id="bO_7eVXcaJlFEk5sCp_2-5" value="https://www.draw.io" style="strokeWidth=1;shadow=0;dashed=0;align=center;html=1;shape=mxgraph.mockup.containers.anchor;rSize=0;fontSize=17;fontColor=#666666;align=left;" vertex="1" parent="bO_7eVXcaJlFEk5sCp_2-3">
          <mxGeometry x="130" y="60" width="250" height="26" as="geometry" />
        </mxCell>
        <mxCell id="bO_7eVXcaJlFEk5sCp_2-1" value="" style="rounded=0;whiteSpace=wrap;html=1;" vertex="1" parent="bO_7eVXcaJlFEk5sCp_2-3">
          <mxGeometry x="100" y="150" width="860" height="410" as="geometry" />
        </mxCell>
        <mxCell id="bO_7eVXcaJlFEk5sCp_2-6" value="div" style="rounded=0;whiteSpace=wrap;html=1;" vertex="1" parent="bO_7eVXcaJlFEk5sCp_2-3">
          <mxGeometry x="180" y="180" width="130" height="320" as="geometry" />
        </mxCell>
      </root>
    </mxGraphModel>
  </diagram>
  <diagram id="qwJhsBTiSdnWuIYiYI6c" name="Pagina-4">
    <mxGraphModel dx="1435" dy="1124" grid="1" gridSize="10" guides="1" tooltips="1" connect="1" arrows="1" fold="1" page="1" pageScale="1" pageWidth="1169" pageHeight="827" math="0" shadow="0">
      <root>
        <mxCell id="0" />
        <mxCell id="1" parent="0" />
        <mxCell id="PoxrmlGF16jCo9DBbmmP-3" style="edgeStyle=orthogonalEdgeStyle;rounded=0;orthogonalLoop=1;jettySize=auto;html=1;exitX=0.5;exitY=1;exitDx=0;exitDy=0;exitPerimeter=0;" edge="1" parent="1" source="PoxrmlGF16jCo9DBbmmP-14" target="PoxrmlGF16jCo9DBbmmP-2">
          <mxGeometry relative="1" as="geometry" />
        </mxCell>
        <mxCell id="PoxrmlGF16jCo9DBbmmP-1" value="start" style="strokeWidth=2;html=1;shape=mxgraph.flowchart.start_1;whiteSpace=wrap;" vertex="1" parent="1">
          <mxGeometry x="240" y="20" width="100" height="60" as="geometry" />
        </mxCell>
        <mxCell id="PoxrmlGF16jCo9DBbmmP-2" value="end" style="strokeWidth=2;html=1;shape=mxgraph.flowchart.start_1;whiteSpace=wrap;" vertex="1" parent="1">
          <mxGeometry x="240" y="730" width="100" height="60" as="geometry" />
        </mxCell>
        <mxCell id="PoxrmlGF16jCo9DBbmmP-4" value="" style="edgeStyle=orthogonalEdgeStyle;rounded=0;orthogonalLoop=1;jettySize=auto;html=1;exitX=0.5;exitY=1;exitDx=0;exitDy=0;exitPerimeter=0;" edge="1" parent="1" source="PoxrmlGF16jCo9DBbmmP-1" target="PoxrmlGF16jCo9DBbmmP-5">
          <mxGeometry relative="1" as="geometry">
            <mxPoint x="290" y="80" as="sourcePoint" />
            <mxPoint x="290" y="730" as="targetPoint" />
          </mxGeometry>
        </mxCell>
        <mxCell id="PoxrmlGF16jCo9DBbmmP-5" value="Scegli P, F, C" style="shape=parallelogram;html=1;strokeWidth=2;perimeter=parallelogramPerimeter;whiteSpace=wrap;rounded=1;arcSize=12;size=0.23;" vertex="1" parent="1">
          <mxGeometry x="170" y="100" width="240" height="60" as="geometry" />
        </mxCell>
        <mxCell id="PoxrmlGF16jCo9DBbmmP-6" value="" style="edgeStyle=orthogonalEdgeStyle;rounded=0;orthogonalLoop=1;jettySize=auto;html=1;exitX=0.5;exitY=1;exitDx=0;exitDy=0;exitPerimeter=0;" edge="1" parent="1" source="PoxrmlGF16jCo9DBbmmP-5" target="PoxrmlGF16jCo9DBbmmP-7">
          <mxGeometry relative="1" as="geometry">
            <mxPoint x="290" y="160" as="sourcePoint" />
            <mxPoint x="290" y="730" as="targetPoint" />
          </mxGeometry>
        </mxCell>
        <mxCell id="PoxrmlGF16jCo9DBbmmP-7" value="SceltaUmano = P [FC]" style="rounded=1;whiteSpace=wrap;html=1;" vertex="1" parent="1">
          <mxGeometry x="210" y="180" width="160" height="60" as="geometry" />
        </mxCell>
        <mxCell id="PoxrmlGF16jCo9DBbmmP-9" value="" style="edgeStyle=orthogonalEdgeStyle;rounded=0;orthogonalLoop=1;jettySize=auto;html=1;exitX=0.5;exitY=1;exitDx=0;exitDy=0;exitPerimeter=0;" edge="1" parent="1" source="PoxrmlGF16jCo9DBbmmP-7" target="PoxrmlGF16jCo9DBbmmP-8">
          <mxGeometry relative="1" as="geometry">
            <mxPoint x="290" y="250" as="sourcePoint" />
            <mxPoint x="290" y="730" as="targetPoint" />
          </mxGeometry>
        </mxCell>
        <mxCell id="PoxrmlGF16jCo9DBbmmP-8" value="SceltaPC = P [FC]" style="rounded=1;whiteSpace=wrap;html=1;" vertex="1" parent="1">
          <mxGeometry x="210" y="260" width="160" height="60" as="geometry" />
        </mxCell>
        <mxCell id="PoxrmlGF16jCo9DBbmmP-10" value="" style="edgeStyle=orthogonalEdgeStyle;rounded=0;orthogonalLoop=1;jettySize=auto;html=1;exitX=0.5;exitY=1;exitDx=0;exitDy=0;exitPerimeter=0;" edge="1" parent="1" source="PoxrmlGF16jCo9DBbmmP-8" target="PoxrmlGF16jCo9DBbmmP-11">
          <mxGeometry relative="1" as="geometry">
            <mxPoint x="290" y="320" as="sourcePoint" />
            <mxPoint x="290" y="730" as="targetPoint" />
          </mxGeometry>
        </mxCell>
        <mxCell id="PoxrmlGF16jCo9DBbmmP-13" value="" style="edgeStyle=orthogonalEdgeStyle;rounded=0;orthogonalLoop=1;jettySize=auto;html=1;" edge="1" parent="1" source="PoxrmlGF16jCo9DBbmmP-11" target="PoxrmlGF16jCo9DBbmmP-12">
          <mxGeometry relative="1" as="geometry">
            <Array as="points">
              <mxPoint x="80" y="410" />
            </Array>
          </mxGeometry>
        </mxCell>
        <mxCell id="PoxrmlGF16jCo9DBbmmP-18" value="" style="edgeStyle=orthogonalEdgeStyle;rounded=0;orthogonalLoop=1;jettySize=auto;html=1;" edge="1" parent="1" source="PoxrmlGF16jCo9DBbmmP-11" target="PoxrmlGF16jCo9DBbmmP-17">
          <mxGeometry relative="1" as="geometry" />
        </mxCell>
        <mxCell id="PoxrmlGF16jCo9DBbmmP-40" value="false" style="edgeLabel;html=1;align=center;verticalAlign=middle;resizable=0;points=[];" vertex="1" connectable="0" parent="PoxrmlGF16jCo9DBbmmP-18">
          <mxGeometry x="-0.2308" y="-2" relative="1" as="geometry">
            <mxPoint as="offset" />
          </mxGeometry>
        </mxCell>
        <mxCell id="PoxrmlGF16jCo9DBbmmP-11" value="SceltaUmano&lt;div&gt;==&lt;/div&gt;&lt;div&gt;SceltaPC&lt;/div&gt;" style="strokeWidth=2;html=1;shape=mxgraph.flowchart.decision;whiteSpace=wrap;" vertex="1" parent="1">
          <mxGeometry x="215" y="350" width="150" height="120" as="geometry" />
        </mxCell>
        <mxCell id="PoxrmlGF16jCo9DBbmmP-16" style="edgeStyle=orthogonalEdgeStyle;rounded=0;orthogonalLoop=1;jettySize=auto;html=1;exitX=0.5;exitY=1;exitDx=0;exitDy=0;entryX=0;entryY=0.75;entryDx=0;entryDy=0;" edge="1" parent="1" source="PoxrmlGF16jCo9DBbmmP-12" target="PoxrmlGF16jCo9DBbmmP-14">
          <mxGeometry relative="1" as="geometry">
            <Array as="points">
              <mxPoint x="80" y="590" />
              <mxPoint x="247" y="590" />
            </Array>
          </mxGeometry>
        </mxCell>
        <mxCell id="PoxrmlGF16jCo9DBbmmP-12" value="Result = &quot;Pareggio" style="whiteSpace=wrap;html=1;strokeWidth=2;" vertex="1" parent="1">
          <mxGeometry x="20" y="450" width="120" height="60" as="geometry" />
        </mxCell>
        <mxCell id="PoxrmlGF16jCo9DBbmmP-15" value="" style="edgeStyle=orthogonalEdgeStyle;rounded=0;orthogonalLoop=1;jettySize=auto;html=1;exitX=0.5;exitY=1;exitDx=0;exitDy=0;exitPerimeter=0;" edge="1" parent="1" source="PoxrmlGF16jCo9DBbmmP-11" target="PoxrmlGF16jCo9DBbmmP-14">
          <mxGeometry relative="1" as="geometry">
            <mxPoint x="290" y="470" as="sourcePoint" />
            <mxPoint x="290" y="730" as="targetPoint" />
          </mxGeometry>
        </mxCell>
        <mxCell id="PoxrmlGF16jCo9DBbmmP-14" value="print Result" style="shape=parallelogram;html=1;strokeWidth=2;perimeter=parallelogramPerimeter;whiteSpace=wrap;rounded=1;arcSize=12;size=0.23;" vertex="1" parent="1">
          <mxGeometry x="240" y="560" width="100" height="60" as="geometry" />
        </mxCell>
        <mxCell id="PoxrmlGF16jCo9DBbmmP-20" value="false" style="edgeStyle=orthogonalEdgeStyle;rounded=0;orthogonalLoop=1;jettySize=auto;html=1;entryX=0;entryY=0.5;entryDx=0;entryDy=0;" edge="1" parent="1" source="PoxrmlGF16jCo9DBbmmP-17" target="PoxrmlGF16jCo9DBbmmP-24">
          <mxGeometry relative="1" as="geometry">
            <mxPoint x="800" y="410" as="targetPoint" />
          </mxGeometry>
        </mxCell>
        <mxCell id="PoxrmlGF16jCo9DBbmmP-22" value="true" style="edgeStyle=orthogonalEdgeStyle;rounded=0;orthogonalLoop=1;jettySize=auto;html=1;" edge="1" parent="1" source="PoxrmlGF16jCo9DBbmmP-17" target="PoxrmlGF16jCo9DBbmmP-21">
          <mxGeometry relative="1" as="geometry" />
        </mxCell>
        <mxCell id="PoxrmlGF16jCo9DBbmmP-17" value="SceltaUmano&lt;div&gt;==&lt;/div&gt;&lt;div&gt;P&lt;/div&gt;&lt;div&gt;&amp;amp;&amp;amp;&lt;/div&gt;&lt;div&gt;SceltaPC&lt;div&gt;==&lt;/div&gt;&lt;div&gt;F&lt;/div&gt;&lt;/div&gt;" style="strokeWidth=2;html=1;shape=mxgraph.flowchart.decision;whiteSpace=wrap;" vertex="1" parent="1">
          <mxGeometry x="430" y="315" width="230" height="190" as="geometry" />
        </mxCell>
        <mxCell id="PoxrmlGF16jCo9DBbmmP-23" style="edgeStyle=orthogonalEdgeStyle;rounded=0;orthogonalLoop=1;jettySize=auto;html=1;exitX=0;exitY=0.5;exitDx=0;exitDy=0;" edge="1" parent="1" source="PoxrmlGF16jCo9DBbmmP-21" target="PoxrmlGF16jCo9DBbmmP-14">
          <mxGeometry relative="1" as="geometry" />
        </mxCell>
        <mxCell id="PoxrmlGF16jCo9DBbmmP-21" value="Result = &quot;Umano&quot;" style="whiteSpace=wrap;html=1;strokeWidth=2;" vertex="1" parent="1">
          <mxGeometry x="485" y="560" width="120" height="60" as="geometry" />
        </mxCell>
        <mxCell id="PoxrmlGF16jCo9DBbmmP-25" style="edgeStyle=orthogonalEdgeStyle;rounded=0;orthogonalLoop=1;jettySize=auto;html=1;exitX=0.25;exitY=1;exitDx=0;exitDy=0;entryX=0.75;entryY=1;entryDx=0;entryDy=0;" edge="1" parent="1" source="PoxrmlGF16jCo9DBbmmP-24" target="PoxrmlGF16jCo9DBbmmP-14">
          <mxGeometry relative="1" as="geometry" />
        </mxCell>
        <mxCell id="PoxrmlGF16jCo9DBbmmP-24" value="Result = &quot;PC&quot;" style="whiteSpace=wrap;html=1;strokeWidth=2;" vertex="1" parent="1">
          <mxGeometry x="700" y="470" width="120" height="60" as="geometry" />
        </mxCell>
        <mxCell id="PoxrmlGF16jCo9DBbmmP-26" value="false" style="edgeStyle=orthogonalEdgeStyle;rounded=0;orthogonalLoop=1;jettySize=auto;html=1;entryX=0;entryY=0.5;entryDx=0;entryDy=0;" edge="1" source="PoxrmlGF16jCo9DBbmmP-28" target="PoxrmlGF16jCo9DBbmmP-30" parent="1">
          <mxGeometry relative="1" as="geometry">
            <mxPoint x="1200" y="255" as="targetPoint" />
          </mxGeometry>
        </mxCell>
        <mxCell id="PoxrmlGF16jCo9DBbmmP-27" value="true" style="edgeStyle=orthogonalEdgeStyle;rounded=0;orthogonalLoop=1;jettySize=auto;html=1;" edge="1" source="PoxrmlGF16jCo9DBbmmP-28" target="PoxrmlGF16jCo9DBbmmP-29" parent="1">
          <mxGeometry relative="1" as="geometry" />
        </mxCell>
        <mxCell id="PoxrmlGF16jCo9DBbmmP-28" value="SceltaUmano&lt;div&gt;==&lt;/div&gt;&lt;div&gt;F&lt;/div&gt;&lt;div&gt;&amp;amp;&amp;amp;&lt;/div&gt;&lt;div&gt;SceltaPC&lt;div&gt;==&lt;/div&gt;&lt;div&gt;C&lt;/div&gt;&lt;/div&gt;" style="strokeWidth=2;html=1;shape=mxgraph.flowchart.decision;whiteSpace=wrap;" vertex="1" parent="1">
          <mxGeometry x="830" y="160" width="230" height="190" as="geometry" />
        </mxCell>
        <mxCell id="PoxrmlGF16jCo9DBbmmP-38" style="edgeStyle=orthogonalEdgeStyle;rounded=0;orthogonalLoop=1;jettySize=auto;html=1;exitX=0;exitY=0.25;exitDx=0;exitDy=0;entryX=0.75;entryY=0;entryDx=0;entryDy=0;" edge="1" parent="1" source="PoxrmlGF16jCo9DBbmmP-29" target="PoxrmlGF16jCo9DBbmmP-14">
          <mxGeometry relative="1" as="geometry">
            <Array as="points">
              <mxPoint x="885" y="490" />
              <mxPoint x="315" y="490" />
            </Array>
          </mxGeometry>
        </mxCell>
        <mxCell id="PoxrmlGF16jCo9DBbmmP-29" value="Result = &quot;Umano&quot;" style="whiteSpace=wrap;html=1;strokeWidth=2;" vertex="1" parent="1">
          <mxGeometry x="885" y="405" width="120" height="60" as="geometry" />
        </mxCell>
        <mxCell id="PoxrmlGF16jCo9DBbmmP-39" style="edgeStyle=orthogonalEdgeStyle;rounded=0;orthogonalLoop=1;jettySize=auto;html=1;exitX=0.25;exitY=0;exitDx=0;exitDy=0;" edge="1" parent="1" source="PoxrmlGF16jCo9DBbmmP-30">
          <mxGeometry relative="1" as="geometry">
            <mxPoint x="320" y="570" as="targetPoint" />
            <Array as="points">
              <mxPoint x="1130" y="510" />
              <mxPoint x="321" y="510" />
            </Array>
          </mxGeometry>
        </mxCell>
        <mxCell id="PoxrmlGF16jCo9DBbmmP-30" value="Result = &quot;PC&quot;" style="whiteSpace=wrap;html=1;strokeWidth=2;" vertex="1" parent="1">
          <mxGeometry x="1100" y="315" width="120" height="60" as="geometry" />
        </mxCell>
        <mxCell id="PoxrmlGF16jCo9DBbmmP-31" value="false" style="edgeStyle=orthogonalEdgeStyle;rounded=0;orthogonalLoop=1;jettySize=auto;html=1;entryX=0;entryY=0.5;entryDx=0;entryDy=0;" edge="1" source="PoxrmlGF16jCo9DBbmmP-33" target="PoxrmlGF16jCo9DBbmmP-35" parent="1">
          <mxGeometry relative="1" as="geometry">
            <mxPoint x="1250" y="595" as="targetPoint" />
          </mxGeometry>
        </mxCell>
        <mxCell id="PoxrmlGF16jCo9DBbmmP-32" value="true" style="edgeStyle=orthogonalEdgeStyle;rounded=0;orthogonalLoop=1;jettySize=auto;html=1;" edge="1" source="PoxrmlGF16jCo9DBbmmP-33" target="PoxrmlGF16jCo9DBbmmP-34" parent="1">
          <mxGeometry relative="1" as="geometry" />
        </mxCell>
        <mxCell id="PoxrmlGF16jCo9DBbmmP-33" value="SceltaUmano&lt;div&gt;==&lt;/div&gt;&lt;div&gt;C&lt;/div&gt;&lt;div&gt;&amp;amp;&amp;amp;&lt;/div&gt;&lt;div&gt;SceltaPC&lt;div&gt;==&lt;/div&gt;&lt;div&gt;P&lt;/div&gt;&lt;/div&gt;" style="strokeWidth=2;html=1;shape=mxgraph.flowchart.decision;whiteSpace=wrap;" vertex="1" parent="1">
          <mxGeometry x="880" y="500" width="230" height="190" as="geometry" />
        </mxCell>
        <mxCell id="PoxrmlGF16jCo9DBbmmP-36" style="edgeStyle=orthogonalEdgeStyle;rounded=0;orthogonalLoop=1;jettySize=auto;html=1;exitX=0;exitY=0.25;exitDx=0;exitDy=0;" edge="1" parent="1" source="PoxrmlGF16jCo9DBbmmP-34" target="PoxrmlGF16jCo9DBbmmP-14">
          <mxGeometry relative="1" as="geometry">
            <Array as="points">
              <mxPoint x="935" y="690" />
              <mxPoint x="290" y="690" />
            </Array>
          </mxGeometry>
        </mxCell>
        <mxCell id="PoxrmlGF16jCo9DBbmmP-34" value="Result = &quot;Umano&quot;" style="whiteSpace=wrap;html=1;strokeWidth=2;" vertex="1" parent="1">
          <mxGeometry x="935" y="745" width="120" height="60" as="geometry" />
        </mxCell>
        <mxCell id="PoxrmlGF16jCo9DBbmmP-37" style="edgeStyle=orthogonalEdgeStyle;rounded=0;orthogonalLoop=1;jettySize=auto;html=1;exitX=0.25;exitY=1;exitDx=0;exitDy=0;" edge="1" parent="1" source="PoxrmlGF16jCo9DBbmmP-35" target="PoxrmlGF16jCo9DBbmmP-14">
          <mxGeometry relative="1" as="geometry">
            <Array as="points">
              <mxPoint x="1180" y="720" />
              <mxPoint x="300" y="720" />
            </Array>
          </mxGeometry>
        </mxCell>
        <mxCell id="PoxrmlGF16jCo9DBbmmP-35" value="Result = &quot;PC&quot;" style="whiteSpace=wrap;html=1;strokeWidth=2;" vertex="1" parent="1">
          <mxGeometry x="1150" y="655" width="120" height="60" as="geometry" />
        </mxCell>
      </root>
    </mxGraphModel>
  </diagram>
  <diagram id="rf2zZSO9LRJSWsOwJP0C" name="Pagina-5">
    <mxGraphModel dx="1768" dy="1131" grid="1" gridSize="10" guides="1" tooltips="1" connect="1" arrows="1" fold="1" page="1" pageScale="1" pageWidth="1169" pageHeight="827" math="0" shadow="0">
      <root>
        <mxCell id="0" />
        <mxCell id="1" parent="0" />
      </root>
    </mxGraphModel>
  </diagram>
</mxfile>
